<svg aria-hidden="true" style="position:absolute;width:0;height:0;overflow:hidden" xmlns="http://www.w3.org/2000/svg"><defs><symbol id="icon-Client-1" viewBox="0 0 32 32"><path d="m13.176 11.993 1.319 1.249-2.449-.001V19.3h6.4v-2.317l1.318 1.247v-6.237h-6.588zm5.213 4.843-3.74-3.541h3.74v3.541zm-1.161 1.577H13.06v-4.075h.295v3.799h3.873v.276zm-3.184 1.693-.154.317-.154-.317h-.129l.225.423v.246h.117v-.246l.224-.423h-.129zm.194.669.054-.156h.259l.055.156h.121l-.253-.669h-.104l-.253.669h.121zm.183-.527.097.278h-.194l.097-.278zm.613.261a.151.151 0 0 0-.025.085c0 .056.02.102.059.137s.093.052.159.052.123-.018.171-.054l.038.045h.13l-.098-.116a.332.332 0 0 0 .058-.203h-.097a.265.265 0 0 1-.028.123l-.129-.153.046-.033c.032-.023.055-.047.069-.07s.021-.049.021-.077c0-.042-.016-.078-.047-.106s-.071-.043-.12-.043c-.054 0-.097.015-.129.046s-.048.072-.048.124c0 .021.005.044.015.067s.029.051.055.084a.402.402 0 0 0-.1.092zm.302.148a.172.172 0 0 1-.106.038c-.033 0-.06-.01-.08-.029s-.03-.044-.03-.075c0-.036.018-.068.055-.096l.014-.01.146.172zm-.12-.296c-.032-.039-.047-.071-.047-.097 0-.022.006-.041.019-.056s.03-.022.052-.022c.02 0 .037.006.05.019s.02.027.02.045a.083.083 0 0 1-.028.065l-.014.011-.051.035zm1.089.363a.243.243 0 0 0 .079-.167h-.116c-.006.048-.021.082-.044.102s-.057.031-.103.031c-.05 0-.088-.019-.114-.057s-.039-.093-.039-.165v-.059c.001-.071.014-.125.041-.162s.066-.056.117-.056c.044 0 .076.011.099.032s.037.056.042.104h.116c-.007-.073-.034-.13-.079-.17s-.104-.06-.178-.06c-.055 0-.103.013-.145.039s-.074.063-.096.111-.034.104-.034.167v.063c.001.062.012.116.034.162a.248.248 0 0 0 .235.146c.076 0 .137-.02.183-.06zm.684-.093a.408.408 0 0 0 .034-.173v-.037c0-.065-.012-.122-.035-.171a.259.259 0 0 0-.243-.153.261.261 0 0 0-.243.154.411.411 0 0 0-.034.173v.038c0 .064.012.121.035.17a.259.259 0 0 0 .243.153.263.263 0 0 0 .145-.04.259.259 0 0 0 .097-.114zm-.125-.379c.028.04.042.096.042.171v.035c0 .075-.014.133-.042.172s-.067.059-.119.059c-.051 0-.091-.02-.119-.06s-.043-.097-.043-.171v-.039c.001-.072.015-.128.043-.167s.068-.059.118-.059c.051 0 .091.02.119.059z"/></symbol><symbol id="icon-Client-2" viewBox="0 0 32 32"><path d="M15.457 11.793h-.026a4.729 4.729 0 0 0-.119-.004h-.086c-.075 0-.151.002-.227.006h-.017a5.314 5.314 0 0 0-1.979.505l-.081.039v4.168l.19-.065c.167-.057.345-.109.53-.157a6.426 6.426 0 0 1 1.524-.202v.548a3.29 3.29 0 0 0-.2.006h-.016a6.106 6.106 0 0 0-2.569.724v-5.345a5.592 5.592 0 0 1 1.465-.596 5.594 5.594 0 0 1 1.381-.178h.08c.096.002.19.007.278.013.232.016.462.053.688.11v.539a4.28 4.28 0 0 0-.667-.101l-.014-.001a1.621 1.621 0 0 0-.136-.008zm.948.55c.119.009.243.013.369.013a5.93 5.93 0 0 0 1.452-.186 5.952 5.952 0 0 0 1.396-.545v5.25a5.599 5.599 0 0 1-1.466.596 5.642 5.642 0 0 1-1.381.178 4.255 4.255 0 0 1-1.048-.123v-5.284a4.652 4.652 0 0 0 .678.101zm2.672.041-.191.064a6.45 6.45 0 0 1-2.111.361c-.124 0-.239-.003-.349-.011l-.152-.01v4.287l.13.012c.121.011.246.016.371.016.42-.002.839-.056 1.246-.161.335-.084.661-.201.974-.35l.081-.039v-4.169zM12.751 19.186a.285.285 0 0 0-.212-.085.298.298 0 0 0-.217.086.262.262 0 0 0-.061.096.32.32 0 0 0-.022.118v.714c-.002.05.008.1.028.146a.293.293 0 0 0 .071.096.263.263 0 0 0 .098.051.39.39 0 0 0 .107.015.3.3 0 0 0 .295-.301v-.08h-.187v.064a.157.157 0 0 1-.011.064.109.109 0 0 1-.027.04.147.147 0 0 1-.039.021.178.178 0 0 1-.039.007c-.017.002-.034-.001-.049-.007s-.029-.017-.039-.031a.17.17 0 0 1-.025-.096v-.666a.232.232 0 0 1 .023-.107c.01-.015.023-.027.04-.035s.034-.011.052-.008c.016-.001.032.003.047.01s.027.017.037.03a.15.15 0 0 1 .031.096v.062h.185v-.073a.334.334 0 0 0-.085-.226zM13.86 19.178a.332.332 0 0 0-.323-.058.284.284 0 0 0-.171.158.33.33 0 0 0-.027.138v.685a.336.336 0 0 0 .027.14c.017.037.042.07.072.096.029.026.062.047.099.06a.33.33 0 0 0 .222 0c.037-.014.071-.034.101-.06s.054-.059.07-.096a.336.336 0 0 0 .027-.14v-.685a.324.324 0 0 0-.097-.238zm-.088.923c.002.018-.001.037-.007.054s-.017.033-.03.045a.136.136 0 0 1-.176 0c-.013-.013-.023-.028-.03-.045s-.009-.036-.007-.054v-.685c-.002-.018.001-.037.007-.054s.017-.033.03-.045a.136.136 0 0 1 .176 0c.013.013.023.028.03.045s.009.036.007.054v.685zM15.316 20.407V19.11h-.18l-.236.686h-.003l-.238-.686h-.178v1.297h.185v-.789h.003l.181.558h.092l.183-.558h.003v.789h.185zM16.369 19.201a.268.268 0 0 0-.105-.071.407.407 0 0 0-.134-.02h-.275v1.297h.185v-.506h.095a.344.344 0 0 0 .167-.035.267.267 0 0 0 .101-.099.31.31 0 0 0 .042-.113.908.908 0 0 0 .01-.147.718.718 0 0 0-.018-.185.273.273 0 0 0-.068-.119zm-.096.396a.17.17 0 0 1-.017.067.1.1 0 0 1-.048.045.185.185 0 0 1-.087.016h-.084v-.441h.095a.181.181 0 0 1 .083.016.105.105 0 0 1 .043.048.18.18 0 0 1 .016.072v.086c0 .03.002.061 0 .089h-.002zM17.244 19.11h-.151l-.286 1.297h.185l.054-.279h.252l.054.279h.185l-.293-1.297zm-.171.842.091-.47h.003l.09.47h-.185zM18.438 19.892h-.003l-.279-.781h-.178v1.297h.185v-.78h.004l.282.78h.174v-1.297h-.185v.781zM19.567 19.11l-.149.516h-.004l-.149-.516h-.196l.254.749v.548h.185v-.548l.254-.749h-.196zM12.235 20.773h.089v.25h.06v-.25h.089v-.051h-.238v.051zM12.984 20.722l-.117.301h.064l.025-.068h.12l.026.068h.066l-.12-.301h-.064zm-.01.182.041-.112.041.112h-.082zM13.724 20.912h.07v.039a.114.114 0 0 1-.071.025.076.076 0 0 1-.063-.029.122.122 0 0 1-.022-.078c0-.067.029-.101.087-.101.015-.002.03.003.043.011s.021.022.025.037l.06-.011c-.013-.059-.055-.089-.128-.089a.15.15 0 0 0-.105.039.149.149 0 0 0-.043.116.161.161 0 0 0 .039.113c.015.015.033.027.052.035s.041.011.062.009a.184.184 0 0 0 .128-.048v-.119h-.13v.051zM14.48 20.722h-.061v.301h.211v-.051h-.15v-.25zM15.119 20.722h-.061v.301h.061v-.301zM15.743 20.923l-.123-.201h-.059v.301h.057v-.197l.121.197h.06v-.301h-.056v.201zM16.308 20.89h.15v-.051h-.15v-.066h.161v-.051h-.222v.301h.229v-.051h-.168v-.081zM17.678 20.841h-.119v-.119h-.06v.301h.06v-.132h.119v.132h.06v-.301h-.06v.119zM18.246 20.89h.15v-.051h-.15v-.066h.162v-.051h-.222v.301h.228v-.051h-.168v-.081zM19.016 20.89c.053-.008.079-.036.079-.084.002-.013 0-.026-.006-.038s-.013-.022-.024-.029a.168.168 0 0 0-.088-.018h-.128v.301h.061v-.126h.012a.083.083 0 0 1 .038.007.056.056 0 0 1 .021.022l.066.096h.072l-.037-.059a.201.201 0 0 0-.067-.072zm-.061-.041h-.045v-.076h.048a.155.155 0 0 1 .061.007c.004.004.008.009.01.014s.003.011.003.017c0 .006-.002.012-.005.017s-.007.01-.011.013a.162.162 0 0 1-.062.007zM19.597 20.89h.15v-.051h-.15v-.066h.162v-.051h-.223v.301h.229v-.051h-.168v-.081z"/></symbol><symbol id="icon-Client-3" viewBox="0 0 32 32"><path d="m12.876 19.596.009.002a.018.018 0 0 1 .007.005l.041.039a.347.347 0 0 1-.115.075.456.456 0 0 1-.164.027.444.444 0 0 1-.154-.025.318.318 0 0 1-.191-.179.355.355 0 0 1-.026-.14.314.314 0 0 1 .108-.249.367.367 0 0 1 .123-.071.473.473 0 0 1 .159-.025.385.385 0 0 1 .257.086l-.034.042c-.002.003-.005.006-.009.008s-.009.004-.014.003a.042.042 0 0 1-.015-.004l-.018-.011-.026-.014a.488.488 0 0 0-.034-.014c-.015-.005-.031-.008-.047-.011a.313.313 0 0 0-.061-.004.337.337 0 0 0-.114.019.24.24 0 0 0-.147.137.281.281 0 0 0-.021.111.29.29 0 0 0 .021.112.246.246 0 0 0 .142.135.306.306 0 0 0 .106.018.444.444 0 0 0 .063-.004.258.258 0 0 0 .136-.058.032.032 0 0 1 .02-.007zM14.062 19.398a.339.339 0 0 1-.105.247.358.358 0 0 1-.121.071.504.504 0 0 1-.312 0c-.045-.016-.086-.04-.121-.071s-.061-.068-.078-.109a.362.362 0 0 1 0-.278.322.322 0 0 1 .199-.177.49.49 0 0 1 .312 0c.046.016.087.04.121.071a.317.317 0 0 1 .105.247zm-.108 0a.28.28 0 0 0-.02-.111.216.216 0 0 0-.055-.083.248.248 0 0 0-.087-.053.367.367 0 0 0-.227 0 .248.248 0 0 0-.087.053.216.216 0 0 0-.055.083.329.329 0 0 0 0 .223.227.227 0 0 0 .142.135.367.367 0 0 0 .227 0 .246.246 0 0 0 .087-.052.236.236 0 0 0 .055-.083.306.306 0 0 0 .02-.111zM14.871 19.515l.011.025.012-.025.013-.025.262-.414c.005-.007.01-.012.015-.013a.053.053 0 0 1 .022-.002h.078v.674h-.092v-.539l-.264.42c-.003.006-.009.012-.015.015s-.015.006-.023.006h-.015c-.008 0-.016-.002-.023-.006s-.012-.009-.015-.015l-.271-.423v.54h-.089v-.672h.078c.007 0 .015 0 .022.002s.011.007.014.013l.268.415c.005.008.01.016.013.024zM15.858 19.482v.252h-.103v-.673h.229a.462.462 0 0 1 .128.015.24.24 0 0 1 .09.042.17.17 0 0 1 .051.066.197.197 0 0 1 .017.086.2.2 0 0 1-.019.086.177.177 0 0 1-.055.067.277.277 0 0 1-.091.045.469.469 0 0 1-.124.016l-.124-.002zm0-.072h.124a.308.308 0 0 0 .08-.01.176.176 0 0 0 .058-.029.128.128 0 0 0 .047-.102.117.117 0 0 0-.046-.101.213.213 0 0 0-.138-.036h-.124v.277zM17.237 19.735h-.081c-.008 0-.016-.002-.023-.006s-.01-.01-.013-.016l-.07-.163h-.351l-.072.163c-.003.006-.007.011-.013.015s-.015.007-.023.007h-.081l.308-.674h.107l.312.674zm-.508-.25h.289l-.122-.274a.533.533 0 0 1-.023-.063l-.012.035-.011.029-.121.274zM17.681 19.064a.044.044 0 0 1 .015.012l.449.508v-.523h.092v.674h-.051c-.007 0-.015-.001-.021-.004s-.012-.007-.016-.012l-.449-.507v.523h-.092v-.674h.054c.006 0 .013.001.018.003zM18.994 19.467v.268h-.103v-.268l-.284-.406h.092c.008 0 .016.002.022.006s.01.009.014.015l.178.262a.349.349 0 0 1 .031.06l.013-.029a.307.307 0 0 1 .017-.031l.175-.264.013-.014a.038.038 0 0 1 .022-.007h.093l-.284.408zM14.82 17.931c.045.005.09.009.136.012.692-.269 1.278-.71 1.684-1.267s.614-1.205.598-1.864l-.763-.663c.155.702.083 1.427-.21 2.095s-.793 1.252-1.445 1.687z"/><path d="m14.548 17.9.021.004c.697-.433 1.229-1.038 1.526-1.737s.346-1.459.141-2.182l-1.087-.944c.44.776.617 1.645.51 2.505s-.492 1.677-1.111 2.354zM18.234 15.591c-.185.724-.633 1.377-1.279 1.862a4.137 4.137 0 0 1-.608.379c.526-.134 1.009-.372 1.413-.694s.716-.721.915-1.165l-.441-.383z"/><path d="m18.061 15.484-.628-.545c-.012.622-.215 1.229-.589 1.76s-.904.964-1.536 1.256h.003c.141 0 .282-.007.421-.022.591-.209 1.112-.543 1.519-.97s.685-.935.81-1.479zM14.638 12.642l-.749-.651c-.669.225-1.245.62-1.652 1.134s-.625 1.122-.627 1.746c.002.689.269 1.358.758 1.9s1.172.927 1.942 1.094c.687-.727 1.089-1.625 1.148-2.564s-.228-1.87-.82-2.658zM19.791 15.384c-.003-.817-.378-1.601-1.043-2.179s-1.567-.904-2.508-.906c-.435 0-.866.069-1.271.206l4.585 3.983c.157-.352.237-.726.237-1.104z"/></symbol><symbol id="icon-Client-4" viewBox="0 0 32 32"><path d="M10.569 14.325h-.001c-.451 0-.817.325-.817.726 0 .401.366.726.817.726h.001c.451 0 .817-.325.817-.726 0-.401-.366-.726-.817-.726zM16.601 14.093c-.001-.557-.251-1.091-.694-1.485s-1.044-.616-1.671-.617c-.627.001-1.228.223-1.672.617s-.693.928-.695 1.486v3.073s4.731-.468 4.732-3.072zM8.094 18.174c.001.388.175.759.483 1.033s.726.429 1.163.43c.436-.001.854-.156 1.162-.43s.482-.645.484-1.033v-2.138s-3.292.326-3.292 2.137zm1.646.383c-.085 0-.169-.022-.239-.065s-.126-.102-.159-.172c-.033-.07-.041-.147-.025-.221s.058-.143.118-.196a.479.479 0 0 1 .47-.083c.079.029.146.078.193.141a.356.356 0 0 1 .041.36.375.375 0 0 1-.093.125c-.04.036-.088.064-.14.083s-.109.029-.165.029v-.001zM13.067 18.346h-.318v.328h-.165v-.803h.523v.134h-.357v.207h.318v.133zm.795-.055c0 .079-.014.148-.042.208a.318.318 0 0 1-.299.187.317.317 0 0 1-.299-.185.479.479 0 0 1-.044-.205v-.04c0-.079.014-.149.042-.208a.32.32 0 0 1 .3-.187.324.324 0 0 1 .299.187c.029.06.043.129.043.208v.036zm-.168-.036c0-.084-.015-.148-.045-.192s-.073-.066-.129-.066c-.056 0-.098.022-.129.065s-.045.106-.046.19v.039c0 .082.015.146.045.191s.074.068.13.068c.056 0 .098-.022.128-.065s.045-.107.045-.191v-.039zm.705.209c0-.031-.011-.055-.033-.072s-.062-.035-.119-.053a.878.878 0 0 1-.136-.055c-.091-.049-.137-.116-.137-.199 0-.043.012-.082.036-.116s.06-.061.105-.08a.399.399 0 0 1 .307.002c.045.021.08.05.104.088s.037.081.037.129h-.165c0-.037-.012-.065-.035-.085s-.056-.031-.098-.031c-.04 0-.072.009-.094.026s-.034.039-.034.067c0 .026.013.048.039.066s.065.034.116.05c.094.028.163.063.206.105s.065.094.065.157c0 .069-.026.124-.079.164s-.123.059-.212.059c-.062 0-.118-.011-.169-.034s-.09-.054-.116-.093a.235.235 0 0 1-.04-.137h.166c0 .089.053.133.159.133.039 0 .07-.008.092-.024s.033-.039.033-.067zm.883-.459h-.246v.669h-.165v-.669h-.243v-.134h.654v.134zm.578.321h-.318v.215h.373v.133h-.538v-.803h.537v.134h-.372v.191h.318v.13zm.449.054h-.132v.294h-.165v-.803h.298c.095 0 .168.021.219.063s.077.102.077.179c0 .055-.012.101-.036.137s-.059.065-.108.087l.174.328v.008h-.178l-.151-.294zm-.132-.134h.133c.042 0 .074-.011.096-.031s.034-.051.034-.088c0-.038-.011-.068-.033-.089s-.054-.033-.099-.033h-.133v.241zm1.003.145v.283h-.165v-.803h.313c.06 0 .113.011.159.033s.081.053.106.094c.025.04.037.087.037.138 0 .079-.027.141-.081.186s-.128.068-.223.068h-.145zm0-.134h.148c.044 0 .077-.01.1-.031s.035-.05.035-.088c0-.039-.012-.071-.035-.095s-.055-.037-.096-.038h-.152v.252zm1.046.069h-.318v.215h.373v.133h-.538v-.803h.537v.134h-.372v.191h.318v.13zm.768-.321h-.246v.669h-.165v-.669h-.243v-.134h.654v.134zm.578.321h-.318v.215h.373v.133h-.538v-.803h.537v.134h-.372v.191h.318v.13zm.449.054h-.132v.294h-.165v-.803h.298c.095 0 .168.021.219.063s.077.102.077.179c0 .055-.012.101-.036.137s-.059.065-.108.087l.174.328v.008h-.177l-.151-.294zm-.131-.134h.133c.041 0 .074-.011.096-.031s.034-.051.034-.088c0-.038-.011-.068-.033-.089s-.054-.033-.099-.033h-.133v.241zm.972.218c0-.031-.011-.055-.033-.072s-.062-.035-.119-.053a.878.878 0 0 1-.136-.055c-.091-.049-.137-.116-.137-.199 0-.043.012-.082.036-.116s.06-.061.105-.08a.402.402 0 0 1 .307.002.238.238 0 0 1 .142.217h-.165c0-.037-.012-.065-.035-.085s-.056-.031-.098-.031c-.04 0-.072.009-.094.026s-.034.039-.034.067c0 .026.013.048.039.066s.065.034.116.05c.094.028.163.063.206.105s.065.094.065.157c0 .069-.026.124-.079.164s-.123.059-.212.059c-.062 0-.118-.011-.169-.034s-.089-.054-.116-.093a.235.235 0 0 1-.04-.137h.166c0 .089.053.133.159.133.039 0 .07-.008.092-.024s.033-.039.033-.067z"/></symbol><symbol id="icon-Client-5" viewBox="0 0 32 32"><path d="M11.06 18.774a.27.27 0 0 1 .069.184c.002.044-.006.087-.025.127s-.047.076-.082.105a.492.492 0 0 1-.311.085h-.547V18.11h.535a.495.495 0 0 1 .297.077.26.26 0 0 1 .104.218.255.255 0 0 1-.062.178.301.301 0 0 1-.163.091.316.316 0 0 1 .185.1zm-.641-.176h.229a.227.227 0 0 0 .146-.039.132.132 0 0 0 .049-.114.137.137 0 0 0-.048-.114.237.237 0 0 0-.15-.039h-.225v.306zm.397.447c.018-.015.033-.033.042-.053s.013-.043.012-.065a.14.14 0 0 0-.055-.12.256.256 0 0 0-.155-.042h-.24v.321h.243a.258.258 0 0 0 .154-.04zM12.155 19.275l-.298-.455h-.112v.455h-.256V18.11h.485a.511.511 0 0 1 .338.099.351.351 0 0 1 .036.482.4.4 0 0 1-.231.118l.317.466h-.279zm-.41-.615h.21c.146 0 .218-.059.218-.177a.167.167 0 0 0-.054-.131.24.24 0 0 0-.165-.047h-.212l.002.355zM13.555 19.04h-.511l-.09.235h-.269l.469-1.152h.29l.467 1.152h-.269l-.088-.235zm-.069-.176-.187-.492-.187.492h.373zM15.308 19.275h-.254l-.57-.793v.793h-.254V18.11h.254l.57.797v-.797h.254v1.165zM16.759 18.996a.535.535 0 0 1-.23.206.812.812 0 0 1-.358.073h-.453V18.11h.453a.828.828 0 0 1 .358.072.523.523 0 0 1 .23.203.627.627 0 0 1 0 .612zm-.291-.028c.073-.077.113-.176.113-.278s-.04-.201-.113-.278a.467.467 0 0 0-.318-.099h-.177v.754h.177a.465.465 0 0 0 .318-.099zM13.714 11.627s3.283 1.135 3.213 2.777v2.777s-3.28-1.135-3.212-2.777l-.001-2.777zM19.851 16.53a4.755 4.755 0 0 1 2.086-.704v-.869a4.216 4.216 0 0 0-2.086 1.573z"/><path d="M19.479 16.792c.507-.935 1.387-1.657 2.458-2.017V12.27s-4.675 1.616-4.576 3.955v3.954s.208-.072.536-.208c0-.126 0-.254.015-.382.097-1.086.66-2.091 1.567-2.797z"/><path d="M19.034 18.261c.024-.274.079-.546.164-.81a3.662 3.662 0 0 0-.978 2.161c-.007.075-.011.15-.012.228.265-.117.575-.262.899-.434a3.768 3.768 0 0 1-.073-1.145zM19.22 18.276c-.031.346-.012.695.058 1.037 1.277-.7 2.712-1.781 2.657-3.088v-.114a4.363 4.363 0 0 0-2.43 1.04c-.155.36-.251.739-.285 1.125z"/></symbol><symbol id="icon-Client-6" viewBox="0 0 32 32"><path d="M16.08 15.512a.559.559 0 0 1-.114-.374v-.543c0-.166.038-.293.113-.379s.205-.13.389-.129c.173 0 .295.037.368.11a.454.454 0 0 1 .109.325v.128h-.309v-.129a.662.662 0 0 0-.009-.126.12.12 0 0 0-.044-.075.175.175 0 0 0-.112-.029.188.188 0 0 0-.118.031.141.141 0 0 0-.051.083.602.602 0 0 0-.012.134v.659a.334.334 0 0 0 .04.185c.015.02.037.035.062.045s.053.013.08.01a.164.164 0 0 0 .109-.03.137.137 0 0 0 .046-.08.838.838 0 0 0 .01-.132v-.134h.309v.122a.493.493 0 0 1-.107.341c-.071.081-.192.121-.37.121s-.312-.043-.388-.133zM17.366 15.518c-.078-.084-.117-.208-.117-.37v-.571c0-.161.039-.283.117-.366s.208-.124.391-.124c.182 0 .311.041.389.124s.118.205.118.366v.571c0 .161-.04.285-.119.37s-.208.128-.388.128c-.18 0-.313-.043-.391-.127zm.535-.137a.315.315 0 0 0 .037-.169v-.699a.313.313 0 0 0-.036-.166c-.016-.02-.038-.036-.063-.046s-.054-.013-.081-.01c-.028-.003-.056 0-.082.01s-.048.025-.064.045a.304.304 0 0 0-.037.166v.702a.315.315 0 0 0 .037.169.213.213 0 0 0 .288 0v-.003zM18.636 14.103h.333l.25 1.053.256-1.053h.324l.033 1.52h-.239l-.026-1.057-.247 1.057h-.192l-.256-1.06-.024 1.06h-.242l.03-1.52zM20.203 14.103h.518c.298 0 .448.144.448.432 0 .276-.157.413-.471.413h-.176v.676h-.32l.002-1.52zm.443.65c.032.003.064.001.094-.007s.058-.022.082-.041a.244.244 0 0 0 .046-.172.495.495 0 0 0-.015-.138c-.005-.015-.012-.029-.024-.042s-.025-.023-.04-.031a.33.33 0 0 0-.143-.024h-.124v.454h.124zM21.63 14.103h.344l.352 1.52h-.298l-.07-.351h-.306l-.072.351h-.302l.352-1.52zm.294.994-.12-.638-.12.638h.239zM22.61 14.103h.224l.428.867v-.867h.265v1.52h-.213l-.431-.905v.905h-.274l.001-1.52zM24.149 15.044l-.356-.939h.3l.217.603.204-.603h.294l-.352.939v.58h-.307v-.58zM16.574 16.288v.079h-.261v.618h-.109v-.618h-.262v-.079h.632zM17.392 16.986h-.084a.042.042 0 0 1-.038-.023l-.075-.166h-.362l-.075.166a.044.044 0 0 1-.012.019.04.04 0 0 1-.024.007h-.084l.32-.697h.111l.324.694zm-.53-.259h.302l-.128-.284a.642.642 0 0 1-.024-.066.816.816 0 0 1-.012.037l-.012.029-.127.283zM17.943 16.917a.6.6 0 0 0 .06 0c.017-.002.034-.004.051-.008.016-.003.031-.008.046-.013l.043-.017v-.157h-.128l-.009-.001-.008-.004-.005-.006a.019.019 0 0 1-.002-.007v-.054h.248v.267a.483.483 0 0 1-.215.071.964.964 0 0 1-.093.004.485.485 0 0 1-.161-.026c-.048-.017-.091-.041-.128-.073s-.064-.069-.082-.11a.345.345 0 0 1-.029-.145.353.353 0 0 1 .029-.146c.018-.041.046-.079.082-.11s.08-.056.128-.072a.522.522 0 0 1 .171-.026.468.468 0 0 1 .229.052c.02.011.038.023.056.036l-.031.043c-.002.004-.006.007-.01.01s-.009.004-.015.004a.036.036 0 0 1-.02-.006.194.194 0 0 1-.031-.017c-.014-.007-.028-.014-.043-.019a.3.3 0 0 0-.059-.015.552.552 0 0 0-.081-.006.39.39 0 0 0-.123.019c-.036.012-.068.031-.094.055s-.047.055-.059.087a.32.32 0 0 0 0 .232.264.264 0 0 0 .157.143.363.363 0 0 0 .127.014zM18.962 16.906h.349v.079h-.456v-.697h.109l-.003.618zM19.675 16.986h-.109v-.697h.109v.697zM20.081 16.292c.007.003.012.008.017.013l.467.526v-.545h.095v.7h-.055c-.008.001-.016-.001-.024-.004s-.012-.008-.017-.013l-.467-.525v.543h-.091v-.697h.057l.018.003zM21.466 16.288v.077h-.387v.23h.314v.074h-.314v.238h.387v.077h-.5v-.696h.5zM10.007 11.982l4.856 1.19v4.171l-4.856-1.19v-4.171zm-.312-.355v4.73l5.478 1.343v-4.729l-5.478-1.344z"/><path d="m12.631 19.895-5.478-1.344v-4.729l5.478 1.344v4.73z"/><path d="m9.786 11.929 4.792 1.175-2.038 1.76-4.793-1.176 2.039-1.759zm-.091-.302-2.543 2.195 5.478 1.344 2.542-2.195-5.478-1.344zM12.94 19.629l2.234-1.929-2.234-.548v2.477z"/></symbol><symbol id="icon-close" viewBox="0 0 32 32"><path d="m26.667 7.303-1.97-1.97-7.808 7.808-7.808-7.808-1.97 1.97 7.808 7.808-7.808 7.808 1.97 1.97 7.808-7.808 7.808 7.808 1.97-1.97-7.808-7.808 7.808-7.808z"/></symbol><symbol id="icon-email-black" viewBox="0 0 32 32"><path d="M26.667 5.333H5.334A2.663 2.663 0 0 0 2.681 8l-.013 16c0 1.467 1.2 2.667 2.667 2.667h21.333c1.467 0 2.667-1.2 2.667-2.667V8c0-1.467-1.2-2.667-2.667-2.667zM26.133 11l-9.427 5.893a1.346 1.346 0 0 1-1.413 0L5.866 11a1.132 1.132 0 1 1 1.2-1.92l8.933 5.587 8.933-5.587a1.132 1.132 0 1 1 1.2 1.92z"/></symbol><symbol id="icon-facebook" viewBox="0 0 32 32"><path d="M21.329 5.313h2.921V.225C23.746.156 22.013 0 19.994 0c-4.212 0-7.097 2.649-7.097 7.519V12H8.249v5.688h4.648V32h5.699V17.689h4.46l.708-5.688h-5.169V8.082c.001-1.644.444-2.769 2.735-2.769z"/></symbol><symbol id="icon-Group-1" viewBox="0 0 32 32"><path fill="#f5f4fa" style="fill:var(--color1, #f5f4fa)" d="M.474 8.889h31.052c.262 0 .474.212.474.474v13.274a.474.474 0 0 1-.474.474H.474A.474.474 0 0 1 0 22.637V9.363c0-.262.212-.474.474-.474z"/><path fill="#212121" style="fill:var(--color2, #212121)" d="m19.83 17.581-2.189-2.205.243-1.197a.575.575 0 0 0 .197.038h.002a.559.559 0 1 0-.521-.372l-1.286.157-2.098-2.108a.139.139 0 0 0-.195-.001l-.392.39a.139.139 0 0 0 0 .196l.211.214a3.874 3.874 0 0 0 .653 4.579.12.12 0 0 0 .038.025.844.844 0 0 0-.014.142v1.604H12.82a.691.691 0 0 0-.691.691v.277c0 .076.062.138.138.138h6.361a.138.138 0 0 0 .138-.138v-.277a.691.691 0 0 0-.691-.691h-1.659v-.711c.26.055.525.082.79.083a3.864 3.864 0 0 0 1.825-.462l.212.213a.139.139 0 0 0 .195.001l.392-.39a.139.139 0 0 0 0-.196zm-1.943-4.113a.276.276 0 1 1 .195.472h-.001a.276.276 0 0 1-.193-.473zm-.325.908-.155.764-.305-.307.46-.457zm-.157-.233-.498.495-.385-.387.883-.108zm.67 5.176c.229 0 .415.186.415.415v.138h-6.084v-.138c0-.229.186-.415.415-.415h5.254zm-1.936-.554v.277h-1.383v-.277h1.383zm-1.382-.276v-1.051c0-.335.31-.608.691-.608s.691.273.691.608v1.051h-1.383zm1.659-.44v-.611c0-.488-.434-.885-.968-.885a.986.986 0 0 0-.851.463 3.596 3.596 0 0 1-.591-4.119l4.823 4.85a3.587 3.587 0 0 1-2.413.302zm2.927-.177-5.459-5.491.196-.195 2.057 2.069.003.002 3.4 3.42-.196.195z"/><path fill="#2196f3" style="fill:var(--color3, #2196f3)" d="M15.449 17.106h-.001a.414.414 0 1 0-.001.829h.001a.414.414 0 1 0 .002-.829zm.097.513a.138.138 0 0 1-.235-.099c0-.037.015-.072.041-.097s.06-.04.097-.04a.14.14 0 0 1 .138.139.135.135 0 0 1-.041.097h.001z"/></symbol><symbol id="icon-Group-2" viewBox="0 0 32 32"><path fill="#f5f4fa" style="fill:var(--color1, #f5f4fa)" d="M.474 8.889h31.052c.262 0 .474.212.474.474v13.274a.474.474 0 0 1-.474.474H.474A.474.474 0 0 1 0 22.637V9.363c0-.262.212-.474.474-.474z"/><path fill="#212121" style="fill:var(--color2, #212121)" d="M19.966 15.819a3.968 3.968 0 1 0-5.175 3.781.175.175 0 0 0 .137-.017.166.166 0 0 0 .073-.092l1.002-3.176a.495.495 0 1 0-.218-.941l-1.324-1.324a.166.166 0 0 0-.234.234l1.323 1.325a.489.489 0 0 0 .139.599l-.955 3.026a3.64 3.64 0 1 1 2.74-.091l-.103-.486a.165.165 0 0 0-.272-.089l-.995.888a.166.166 0 0 0 .059.281l1.27.405a.165.165 0 0 0 .212-.192l-.101-.477a3.957 3.957 0 0 0 2.419-3.653zm-3.968-.165a.165.165 0 1 1 0 .33.165.165 0 0 1 0-.33zm.544 3.853.566-.505.156.736-.723-.231z"/><path fill="#2196f3" style="fill:var(--color3, #2196f3)" d="M15.833 12.678v.331a.165.165 0 0 0 .33 0v-.331a.165.165 0 0 0-.33 0zM12.857 15.653a.165.165 0 0 0 0 .33h.331a.165.165 0 0 0 0-.33h-.331zM19.139 15.984a.165.165 0 0 0 0-.33h-.331a.165.165 0 0 0 0 .33h.331z"/></symbol><symbol id="icon-Group-3" viewBox="0 0 32 32"><path fill="#f5f4fa" style="fill:var(--color1, #f5f4fa)" d="M.474 8.889h31.052c.262 0 .474.212.474.474v13.274a.474.474 0 0 1-.474.474H.474A.474.474 0 0 1 0 22.637V9.363c0-.262.212-.474.474-.474z"/><path fill="#2196f3" style="fill:var(--color3, #2196f3)" d="M15.721 15.732h.276v1.244h-.276v-1.244zM16.827 16.284h.276v.691h-.276v-.691zM14.616 16.699h.276v.276h-.276v-.276zM13.787 16.561h.276v.415h-.276v-.415z"/><path fill="#212121" style="fill:var(--color2, #212121)" d="M12.266 19.187H18.9a.415.415 0 0 0 .415-.415v-.553a.415.415 0 0 0-.415-.415h-.138v-3.446l.785-.744a.417.417 0 1 0-.193-.197l-.591.561v-.319a.415.415 0 0 0-.415-.415H12.82a.415.415 0 0 0-.415.415v4.146h-.138a.415.415 0 0 0-.415.415v.553c0 .229.186.415.415.415zm7.463-6.081a.138.138 0 0 1 0 .276.138.138 0 0 1 0-.276zm-7.048.553c0-.076.062-.138.138-.138h5.528c.076 0 .138.062.138.138v.58l-.276.263v-.567a.138.138 0 0 0-.138-.138h-4.975a.138.138 0 0 0-.138.138v3.455c0 .076.062.138.138.138h4.975a.138.138 0 0 0 .138-.138v-2.508l.276-.262v3.185h-5.804v-4.146zm1.244 1.796a.414.414 0 1 0 .287.712l.48.241a.138.138 0 0 0 .165-.032l1.021-1.149 1.004.752a.14.14 0 0 0 .178-.01l.872-.826v2.108h-4.699v-3.179h4.699v.69l-.978.926-1.012-.759a.138.138 0 0 0-.186.019l-1.035 1.165-.387-.194a.415.415 0 0 0-.41-.465zm.138.415a.138.138 0 0 1-.276 0 .138.138 0 0 1 .276 0zm.829 2.211h1.382v.138a.138.138 0 0 1-.138.138H15.03a.138.138 0 0 1-.138-.138v-.138zm-2.764.138c0-.076.062-.138.138-.138h2.349v.138c0 .229.186.415.415.415h1.106a.415.415 0 0 0 .415-.415v-.138H18.9c.076 0 .138.062.138.138v.553a.138.138 0 0 1-.138.138h-6.634a.138.138 0 0 1-.138-.138v-.553z"/></symbol><symbol id="icon-Group-4" viewBox="0 0 32 32"><path fill="#f5f4fa" style="fill:var(--color1, #f5f4fa)" d="M.474 8.889h31.052c.262 0 .474.212.474.474v13.274a.474.474 0 0 1-.474.474H.474A.474.474 0 0 1 0 22.637V9.363c0-.262.212-.474.474-.474z"/><path fill="#2196f3" style="fill:var(--color3, #2196f3)" d="M20.141 13.025a.138.138 0 0 0-.112-.094l-.495-.072-.222-.449c-.046-.095-.201-.095-.248 0l-.222.449-.495.072c-.052.008-.095.044-.112.094s-.003.105.035.142l.359.349-.085.493c-.009.052.012.104.055.135s.099.035.146.011l.443-.233.443.233a.14.14 0 0 0 .145-.01.137.137 0 0 0 .055-.135l-.085-.493.359-.349a.139.139 0 0 0 .035-.142zm-.638.344a.14.14 0 0 0-.04.122l.049.289-.259-.136c-.02-.011-.042-.016-.064-.016s-.044.005-.064.016l-.259.136.049-.289a.135.135 0 0 0-.04-.122l-.21-.205.29-.042a.139.139 0 0 0 .104-.076l.13-.263.13.263c.02.041.059.069.104.076l.29.042-.21.205zM18.627 17.172h-.276v.277h.276v-.277zM18.627 17.726h-.276v.277h.276v-.277zM18.904 17.449h-.276v.277h.276v-.277zM18.351 17.449h-.277v.277h.277v-.277zM17.659 18.693h-.276v.277h.276v-.277zM17.659 19.247h-.276v.277h.276v-.277zM17.936 18.97h-.277v.277h.277v-.277zM17.383 18.97h-.277v.277h.277v-.277zM16 18.14h-.277v.277H16v-.277zM16 18.693h-.277v.277H16v-.277z"/><path fill="#2196f3" style="fill:var(--color3, #2196f3)" d="M16.276 18.417h-.277v.277h.277v-.277zM15.723 18.417h-.277v.277h.277v-.277zM13.373 13.439h-.277v.277h.277v-.277zM13.373 13.992h-.277v.277h.277v-.277z"/><path fill="#2196f3" style="fill:var(--color3, #2196f3)" d="M13.649 13.716h-.277v.277h.277v-.277zM13.096 13.716h-.277v.277h.277v-.277z"/><path fill="#212121" style="fill:var(--color2, #212121)" d="M18.259 15.523a.462.462 0 0 0-.655-.092l-.325.249-.492.367-.352-.14a1.8 1.8 0 0 0 1.067-1.639c0-.991-.81-1.798-1.805-1.798s-1.805.806-1.805 1.798c0 .359.107.693.29.974l-.717-.006h-.001l-.006.001a.135.135 0 0 0-.04.008l-.01.003-.005.002-.838.414-.491.236-.016.009a.461.461 0 0 0 .477.791l.36-.191.587-.303.352-.002-1.411 1.404-.347.346a.428.428 0 0 0 0 .611.431.431 0 0 0 .612 0l.341-.339.451-.337.233.233-.457.455-.347.346a.428.428 0 0 0 0 .611.431.431 0 0 0 .612 0l.903-.899.262-.259-.001-.001.006-.004 1.339-1.467.9.128a.134.134 0 0 0 .068-.009l.013-.006.015-.007.833-.553.008-.008.011-.007.33-.309a.46.46 0 0 0 .055-.612zm-5.855.936c-.045.024-.096.029-.145.013s-.088-.048-.111-.093a.184.184 0 0 1 .056-.234l.341-.164.082.24.034.101-.257.137zm.907-.474-.401.207-.066-.194-.048-.139.525-.259-.01.385zm3.914-1.716c0 .238-.057.463-.155.664l-1.084-.492a.48.48 0 0 0-.204-.36l.38-1.26a1.523 1.523 0 0 1 1.064 1.449zm-3.056 0a1.526 1.526 0 0 1 1.721-1.507l-.371 1.232-.015-.002c-.268 0-.486.217-.486.484a.485.485 0 0 0 .905.239l1.001.455a1.528 1.528 0 0 1-2.756-.901zm1.544.207c0 .114-.094.207-.209.207s-.209-.093-.209-.207.094-.207.209-.207c.115 0 .209.093.209.207zm-3.222 3.895a.158.158 0 0 1-.268-.11c0-.042.016-.08.046-.109l.249-.248.221.22-.249.247zm.833.968a.158.158 0 0 1-.268-.11c0-.042.016-.08.046-.109l.25-.249.221.22-.249.248zm.903-.899-.458.456-.221-.22.457-.455a.132.132 0 0 0 .023-.035l.007-.01c.004-.011.005-.022.007-.033.001-.006.004-.012.004-.019 0-.009-.003-.018-.005-.027s-.002-.017-.005-.025a.133.133 0 0 0-.024-.036l-.007-.01v-.001l-.417-.415c-.004-.004-.01-.006-.015-.01-.007-.006-.014-.011-.023-.015l-.024-.008c-.009-.003-.017-.004-.027-.005s-.016 0-.025.001c-.009.001-.018.002-.027.005s-.016.007-.024.012l-.016.007-.46.343-.233-.233.622-.619 1.13 1.112-.24.238zm1.768-1.819c-.004-.001-.008.001-.012.001a.101.101 0 0 0-.03.002.098.098 0 0 0-.023.006.177.177 0 0 0-.047.028c-.003.003-.007.004-.01.008L14.655 18l-1.122-1.104.734-.731a.139.139 0 0 0 0-.196.135.135 0 0 0-.099-.04l-.575.003.007-.417.805.007a1.803 1.803 0 0 0 1.623.513c.01.008.021.017.034.022l.625.249.039.197.046.23-.779-.111zm1.047.046-.081-.404.375-.28.245.326-.539.358zm.973-.734-.217.204-.241-.321.215-.165a.188.188 0 0 1 .265.037.186.186 0 0 1-.022.246z"/><path fill="#212121" style="fill:var(--color2, #212121)" d="m15.378 16.66-.556-.553a.138.138 0 0 0-.195 0l-.556.553a.139.139 0 0 0 0 .196l.556.553c.027.027.062.04.098.04s.071-.013.098-.04l.556-.553a.139.139 0 0 0 0-.196zm-.653.456-.359-.358.359-.358.36.358-.36.358zM16.302 13.166l-.067.269c.018.005.451.117.451.557h.277c0-.523-.432-.769-.66-.826zM16.962 14.269h-.277v.277h.277v-.277z"/></symbol><symbol id="icon-icon-check" viewBox="0 0 32 32"><path fill="#2196f3" style="fill:var(--color3, #2196f3)" d="M4 1h24a4 4 0 0 1 4 4v22a4 4 0 0 1-4 4H4a4 4 0 0 1-4-4V5a4 4 0 0 1 4-4z"/><path fill="#fff" style="fill:var(--color4, #fff);stroke:var(--color4, #fff)" stroke="#fff" stroke-width=".4" d="m7.914 16.503-.138-.131-2.067 1.958 7.282 6.947 15.298-14.594-2.053-1.959-13.245 12.623-5.077-4.844z"/></symbol><symbol id="icon-instagram" viewBox="0 0 32 32"><path d="M31.969 9.408c-.075-1.7-.35-2.869-.744-3.882a7.806 7.806 0 0 0-1.851-2.838A7.867 7.867 0 0 0 26.542.844C25.523.45 24.36.175 22.66.1 20.947.019 20.403 0 16.059 0s-4.888.019-6.595.094c-1.7.075-2.869.35-3.882.744a7.803 7.803 0 0 0-2.838 1.85A7.867 7.867 0 0 0 .9 5.52C.506 6.539.231 7.702.156 9.402c-.081 1.713-.1 2.257-.1 6.601s.019 4.888.094 6.595c.075 1.7.35 2.869.744 3.882a7.895 7.895 0 0 0 1.85 2.838 7.867 7.867 0 0 0 2.832 1.844c1.019.394 2.182.669 3.882.744 1.706.075 2.25.094 6.595.094s4.888-.019 6.595-.094c1.7-.075 2.869-.35 3.882-.744a8.184 8.184 0 0 0 4.682-4.682c.394-1.019.669-2.182.744-3.882.075-1.707.094-2.251.094-6.595s-.006-4.888-.081-6.595zm-2.882 13.065c-.069 1.563-.331 2.407-.55 2.969a5.31 5.31 0 0 1-3.038 3.038c-.563.219-1.413.481-2.969.55-1.688.075-2.194.094-6.464.094s-4.782-.019-6.464-.094c-1.563-.069-2.407-.331-2.969-.55a4.926 4.926 0 0 1-1.838-1.194 4.974 4.974 0 0 1-1.194-1.838c-.219-.563-.481-1.413-.55-2.969-.075-1.688-.094-2.194-.094-6.464s.019-4.782.094-6.464c.069-1.563.331-2.407.55-2.969a4.868 4.868 0 0 1 1.2-1.838A4.974 4.974 0 0 1 6.639 3.55c.563-.219 1.413-.481 2.969-.55 1.688-.075 2.194-.094 6.464-.094 4.276 0 4.782.019 6.464.094 1.563.069 2.407.331 2.969.55a4.914 4.914 0 0 1 1.838 1.194 4.974 4.974 0 0 1 1.194 1.838c.219.563.481 1.413.55 2.969.075 1.688.094 2.194.094 6.464s-.019 4.77-.094 6.458z"/><path d="M16.059 7.783c-4.538 0-8.22 3.682-8.22 8.22s3.682 8.22 8.22 8.22c4.539 0 8.22-3.682 8.22-8.22s-3.682-8.22-8.22-8.22zm0 13.552a5.333 5.333 0 0 1 0-10.664 5.333 5.333 0 0 1 0 10.664zM26.524 7.458a1.919 1.919 0 1 1-3.838 0 1.919 1.919 0 0 1 3.838 0z"/></symbol><symbol id="icon-linkedin" viewBox="0 0 32 32"><path d="M31.992 32v-.001H32V20.263c0-5.741-1.236-10.164-7.948-10.164-3.227 0-5.392 1.771-6.276 3.449h-.093v-2.913h-6.364v21.364h6.627V21.42c0-2.785.528-5.479 3.977-5.479 3.399 0 3.449 3.179 3.449 5.657v10.401h6.62zM.528 10.636h6.635V32H.528V10.636zM3.843 0C1.722 0 0 1.721 0 3.843s1.721 3.879 3.843 3.879c2.121 0 3.843-1.757 3.843-3.879A3.846 3.846 0 0 0 3.843 0z"/></symbol><symbol id="icon-mail" viewBox="0 0 32 32"><path d="M29 4H3C1.346 4 0 5.346 0 7v18c0 1.654 1.346 3 3 3h26c1.654 0 3-1.346 3-3V7c0-1.654-1.346-3-3-3zm0 2c.136 0 .265.028.383.077L16 17.676 2.617 6.077A.996.996 0 0 1 3 6h26zm0 20H3a1 1 0 0 1-1-1V8.19l13.345 11.565a.998.998 0 0 0 1.31 0L30 8.19V25a1 1 0 0 1-1 1z"/></symbol><symbol id="icon-mobile-menu" viewBox="0 0 32 32"><path d="M0 8.889V5.333h32v3.556H0zm0 8.889h32v-3.556H0v3.556zm0 8.889h32v-3.556H0v3.556z"/></symbol><symbol id="icon-person" viewBox="0 0 32 32"><path d="M16 16c2.947 0 5.333-2.387 5.333-5.333S18.946 5.334 16 5.334c-2.947 0-5.333 2.387-5.333 5.333S13.054 16 16 16zm0 2.667c-3.56 0-10.667 1.787-10.667 5.333v1.333c0 .733.6 1.333 1.333 1.333h18.667c.733 0 1.333-.6 1.333-1.333V24c0-3.547-7.107-5.333-10.667-5.333z"/></symbol><symbol id="icon-phone" viewBox="0 0 32 32"><path d="M23 0H9C7.346 0 6 1.346 6 3v26c0 1.654 1.346 3 3 3h14c1.654 0 3-1.346 3-3V3c0-1.654-1.346-3-3-3zM9 2h14a1 1 0 0 1 1 1v21H8V3a1 1 0 0 1 1-1zm14 28H9a1 1 0 0 1-1-1v-3h16v3a1 1 0 0 1-1 1z"/></symbol><symbol id="icon-phone-black" viewBox="0 0 32 32"><path d="m24.882 19.773-3.268-.373a2.561 2.561 0 0 0-2.11.733L17.137 22.5a19.357 19.357 0 0 1-8.478-8.478l2.38-2.38a2.561 2.561 0 0 0 .733-2.11l-.373-3.242a2.575 2.575 0 0 0-2.56-2.277H6.613c-1.454 0-2.663 1.209-2.573 2.663.682 10.987 9.469 19.761 20.443 20.443 1.454.09 2.663-1.119 2.663-2.573V22.32a2.549 2.549 0 0 0-2.264-2.547z"/></symbol><symbol id="icon-send" viewBox="0 0 32 32"><path fill="#fff" style="fill:var(--color4, #fff)" d="M32 0 0 18l10.227 3.788L26 7 14.002 23.186l.01.004-.012-.004V32l5.735-6.691L27 28l5-28z"/></symbol><symbol id="icon-twitter" viewBox="0 0 32 32"><path d="M32 6.078c-1.19.522-2.458.868-3.78 1.036a6.523 6.523 0 0 0 2.886-3.626 13.11 13.11 0 0 1-4.16 1.588A6.574 6.574 0 0 0 22.154 3c-3.632 0-6.556 2.948-6.556 6.562 0 .52.044 1.02.152 1.496-5.454-.266-10.28-2.88-13.522-6.862a6.605 6.605 0 0 0-.898 3.316 6.57 6.57 0 0 0 2.914 5.452 6.479 6.479 0 0 1-2.964-.808v.072c0 3.188 2.274 5.836 5.256 6.446a6.548 6.548 0 0 1-1.72.216 5.8 5.8 0 0 1-1.242-.112c.85 2.598 3.262 4.508 6.13 4.57a13.182 13.182 0 0 1-8.134 2.798c-.538 0-1.054-.024-1.57-.09A18.469 18.469 0 0 0 10.064 29c12.072 0 18.672-10 18.672-18.668 0-.29-.01-.57-.024-.848A13.087 13.087 0 0 0 32 6.078z"/></symbol></defs></svg>